:SAMPLES-PER-SECOND 30
:FRAME-RANGE 1-2775
:FULLY-SPECIFIED
:DEGREES
347
root  -85.8939 38.6933 -56.893 1.01765 -29.4797 -0.848297
RightUpLeg  -22.2349 17.9779 -6.93664
RightLeg  15.2301 -0.710027 -0.423715
RightFoot  -7.28223 -0.472133 11.8801
RightToes  1.218e-010 1.26228e-014 -6.01869e-014
Spine  -4.43373 -0.419935 -1.71178
Spine1  8.11203 -0.662198 0.898082
HEad  2.59026 43.3168 -8.47183
LeftShoulder1  1.55661 -2.87914 -18.8842
LeftArm  3.04432 -3.11092 -54.8794
LeftForeArm  34.4176 -6.47749 -11.9765
LeftHand  -0.0435285 4.83302 4.51524
RightShoulder  1.22589 0.228064 28.6772
RightArm  -27.3766 -5.16833 41.8586
RightForeArm  67.0288 -5.26285 2.58332
RightHand  0.206815 -6.93245 -16.7833
LeftUpLeg  -2.41622 -6.99822 -7.28636
LeftLeg  20.3064 -1.36491 0.7187
LeftFoot  -15.1415 0.389051 8.95824
LeftToes  5.08156e-010 -6.90346e-011 -6.33378e-011
348
root  -86.3222 38.6702 -56.1264 1.05013 -27.0054 -1.13231
RightUpLeg  -21.6198 11.4656 -4.14794
RightLeg  10.046 12.5759 0.231055
RightFoot  -7.26237 -0.569375 14.5219
RightToes  1.218e-010 1.26228e-014 -6.01869e-014
Spine  -4.92488 -0.595226 -1.47341
Spine1  8.5139 -0.896368 1.24352
HEad  2.82893 43.0013 -8.41511
LeftShoulder1  1.57013 -2.91526 -18.9611
LeftArm  4.8277 -3.29246 -55.1205
LeftForeArm  33.3506 -7.57249 -11.8547
LeftHand  -0.0410619 4.79513 4.69534
RightShoulder  1.21881 0.207789 28.6747
RightArm  -28.292 -6.02568 40.5696
RightForeArm  67.8728 -5.13448 2.00924
RightHand  -0.0250628 -5.30879 -16.3858
LeftUpLeg  -0.683039 -7.77999 -6.99063
LeftLeg  20.0688 -2.94377 0.0999606
LeftFoot  -15.7562 0.437694 8.87381
LeftToes  5.08156e-010 -6.90346e-011 -6.33378e-011
349
root  -86.7809 38.5981 -55.3109 0.883118 -25.138 -1.08792
RightUpLeg  -21.0869 6.86713 -1.97242
RightLeg  7.03973 20.6248 -0.147178
RightFoot  -7.49072 -0.681255 18.5863
RightToes  1.218e-010 1.26228e-014 -6.01869e-014
Spine  -5.40844 -0.636131 -1.43574
Spine1  8.62006 -0.932958 1.27129
HEad  3.72721 42.7647 -7.87466
LeftShoulder1  1.51759 -2.70468 -18.9712
LeftArm  6.05693 -2.86455 -55.2547
LeftForeArm  32.7365 -8.036 -11.8564
LeftHand  -0.0438372 4.84844 4.74222
RightShoulder  1.21061 0.179679 28.7188
RightArm  -29.6338 -6.65557 39.5295
RightForeArm  68.2866 -4.972 1.14126
RightHand  0.0494133 -5.84017 -16.5023
LeftUpLeg  0.959596 -7.87006 -6.8535
LeftLeg  20.2629 -4.47613 -0.570886
LeftFoot  -16.482 0.499748 8.90178
LeftToes  5.08156e-010 -6.90346e-011 -6.33378e-011
350
root  -87.2502 38.462 -54.4484 0.589508 -23.505 -0.664154
RightUpLeg  -21.5482 7.90938 -2.32206
RightLeg  8.31125 19.6814 0.863907
RightFoot  -7.8249 -0.630139 18.6278
RightToes  1.218e-010 1.26228e-014 -6.01869e-014
Spine  -5.8305 -0.617615 -1.59482
Spine1  8.46273 -0.844311 0.977059
HEad  4.60582 42.7923 -7.37597
LeftShoulder1  1.47233 -2.52111 -18.9906
LeftArm  5.95532 -1.77702 -55.1513
LeftForeArm  33.2632 -7.95168 -11.8816
LeftHand  -0.0496323 4.69533 4.79614
RightShoulder  1.16038 0.0537698 28.5097
RightArm  -30.4793 -7.56977 38.9065
RightForeArm  67.6095 -4.90739 0.610144
RightHand  0.163669 -6.6437 -16.6294
LeftUpLeg  2.36351 -8.13526 -7.0952
LeftLeg  21.0354 -5.55191 -1.25237
LeftFoot  -17.2123 0.564224 8.96153
LeftToes  5.08156e-010 -6.90346e-011 -6.33378e-011
